<svg xmlns="http://www.w3.org/2000/svg" width="29" height="29" viewBox="0 0 29 29">
  <g id="vuesax_twotone_quote-up-circle" data-name="vuesax/twotone/quote-up-circle" transform="translate(-492 -316)">
    <g id="quote-up-circle" transform="translate(492 316)">
      <g id="Group_105" data-name="Group 105" transform="translate(9.488 10.47)" opacity="0.4">
        <path id="Vector" d="M3.87,3.87H1.19A1.162,1.162,0,0,1,0,2.68V1.19A1.162,1.162,0,0,1,1.19,0H2.68A1.2,1.2,0,0,1,3.87,1.19Z" transform="translate(6.14)" fill="none" stroke="#292d32" stroke-linecap="round" stroke-linejoin="round" stroke-width="1.5"/>
        <path id="Vector-2" data-name="Vector" d="M2.09,0c0,2.79-.52,3.26-2.09,4.19" transform="translate(7.919 3.87)" fill="none" stroke="#292d32" stroke-linecap="round" stroke-linejoin="round" stroke-width="1.5"/>
        <path id="Vector-3" data-name="Vector" d="M3.87,3.87H1.19A1.162,1.162,0,0,1,0,2.68V1.19A1.162,1.162,0,0,1,1.19,0H2.68A1.2,1.2,0,0,1,3.87,1.19Z" fill="none" stroke="#292d32" stroke-linecap="round" stroke-linejoin="round" stroke-width="1.5"/>
        <path id="Vector-4" data-name="Vector" d="M2.09,0c0,2.79-.52,3.26-2.09,4.19" transform="translate(1.78 3.87)" fill="none" stroke="#292d32" stroke-linecap="round" stroke-linejoin="round" stroke-width="1.5"/>
      </g>
      <path id="Vector-5" data-name="Vector" d="M25,12.5A12.5,12.5,0,1,1,12.5,0,12.5,12.5,0,0,1,25,12.5Z" transform="translate(2 2)" fill="none" stroke="#292d32" stroke-linecap="round" stroke-linejoin="round" stroke-width="1.5"/>
      <path id="Vector-6" data-name="Vector" d="M0,0H29V29H0Z" transform="translate(29 29) rotate(180)" fill="none" opacity="0"/>
    </g>
  </g>
</svg>
